<svg version="1.2" xmlns="http://www.w3.org/2000/svg" viewBox="0 0 120 134" width="120" height="134">
	<title>colyseus-svg</title>
	<defs>
		<linearGradient id="g1" x2="1" gradientUnits="userSpaceOnUse" gradientTransform="matrix(119.53,94.81,-119.798,151.033,13.09,4.21)">
			<stop offset="0" stop-color="#a32fe0"/>
			<stop offset="1" stop-color="#5945e3"/>
		</linearGradient>
		<linearGradient id="g2" x2="1" gradientUnits="userSpaceOnUse" gradientTransform="matrix(119.53,94.8,-124.011,156.362,16.8,-0.46)">
			<stop offset="0" stop-color="#a32fe0"/>
			<stop offset="1" stop-color="#5945e3"/>
		</linearGradient>
		<linearGradient id="g3" x2="1" gradientUnits="userSpaceOnUse" gradientTransform="matrix(119.53,94.8,-57.693,72.743,-14.54,39.05)">
			<stop offset="0" stop-color="#a32fe0"/>
			<stop offset="1" stop-color="#5945e3"/>
		</linearGradient>
	</defs>
	<style>
		.s0 { fill: url(#g1) } 
		.s1 { fill: url(#g2) } 
		.s2 { fill: url(#g3) } 
	</style>
	<g id="Layer_1-2">
		<g id="Layer">
			<path id="Layer" class="s0" d="m19.8 48.5c3.4 2.8 7.5 5.5 12.5 7.9 3.7-7 17.7-24.8 57.4-19.6l-3.5-13.6c-49.3-4.2-63.5 19-66.4 25.3z"/>
			<path id="Layer" class="s1" d="m11 41.3c5.5-10 24.4-30.6 71.4-26.1l-6-14.8c0 0-49.3-5.7-74.2 26.6 0.9 2.6 3.3 8.2 8.8 14.3z"/>
			<path id="Layer" class="s2" d="m100.4 71.7q-11.9 1.2-22.1 1.2c-48 0-69.2-18.8-78.3-32.3v62c0 0.1 3.9 40.2 120.4 28.5 0 0-20-59.4-20-59.4z"/>
		</g>
	</g>
</svg>