<svg xmlns="http://www.w3.org/2000/svg" width="164" height="164"><path fill="#FFF" d="M151.77 83.32c0 37.93-28.13 68.68-66.52 68.68s-66.53-30.75-66.53-68.68 33.13-68.67 71.53-68.67 66.52 30.75 66.52 68.67z"/><path fill="#009CFF" d="M81.63 85.65c-24.68 0-37.16 4.28-42.31 5.59 4.31 19.62 21.64 34.35 42.31 34.35s38-14.73 42.31-34.35c-4.85-1.31-17.33-5.59-42.31-5.59"/><path fill="#002B50" d="M82 138c-30.92 0-56.07-25.41-56.07-56.64S51.61 26.04 82 26.04s56.07 25.33 56.07 56.64S112.92 138 82 138m.38-138c-26.1 0-47.71 8.91-62.51 25.77C7.06 40.36 0 60.24 0 81.75c0 22.14 7.19 42.37 20.24 56.96C35.05 155.26 56.54 164 82.38 164c25.29 0 46.48-8.72 61.27-25.22C156.77 124.14 164 104.06 164 82.24c0-22.03-7.22-42.26-20.34-56.95C128.9 8.75 107.7 0 82.38 0"/></svg>