<svg version="1.1" xmlns="http://www.w3.org/2000/svg" viewBox="0 0 609.796875 789.96875" width="1219.59375" height="1579.9375" filter="invert(93%) hue-rotate(180deg)">
  <!-- svg-source:excalidraw -->
  
  <defs>
    <style class="style-fonts">
      @font-face {
        font-family: "Virgil";
        src: url("https://excalidraw.com/Virgil.woff2");
      }
      @font-face {
        font-family: "Cascadia";
        src: url("https://excalidraw.com/Cascadia.woff2");
      }
      @font-face {
        font-family: "Assistant";
        src: url("https://excalidraw.com/Assistant-Regular.woff2");
      }
    </style>
    
  </defs>
  <rect x="0" y="0" width="609.796875" height="789.96875" fill="#ffffff"></rect><g stroke-linecap="round" transform="translate(12.578125 10) rotate(0 292 42)"><path d="M21 0 C159.93 -0.47, 298.79 -0.3, 563 0 M21 0 C206.55 1.18, 392.84 0.47, 563 0 M563 0 C577.66 -0.38, 585.81 6.93, 584 21 M563 0 C578.43 1.25, 585.6 5.96, 584 21 M584 21 C585.52 34.05, 585.99 45.05, 584 63 M584 21 C584.24 31.75, 583.36 42.82, 584 63 M584 63 C583.83 77.8, 575.97 84.73, 563 84 M584 63 C583.45 75.02, 575.46 81.85, 563 84 M563 84 C389.25 84.25, 214.36 84.27, 21 84 M563 84 C414.8 85.07, 265.91 84.68, 21 84 M21 84 C6.16 84.86, -1.67 77.26, 0 63 M21 84 C5.99 84.89, -1.35 77.48, 0 63 M0 63 C-0.74 46.17, 1.73 31.6, 0 21 M0 63 C-0.97 48.48, 0.26 32.77, 0 21 M0 21 C-0.56 6.42, 7.21 -1.46, 21 0 M0 21 C-1.14 6.86, 5.42 -0.7, 21 0" stroke="#e03131" stroke-width="2" fill="none"></path></g><g transform="translate(203.24820709228516 39.5) rotate(0 101.32991790771484 12.5)"><text x="101.32991790771484" y="17.52" font-family="Virgil, Segoe UI Emoji" font-size="20px" fill="#e03131" text-anchor="middle" style="white-space: pre;" direction="ltr" dominant-baseline="alphabetic">In-memory Database</text></g><g stroke-linecap="round" transform="translate(10 119.25) rotate(0 93 113.5)"><path d="M32 0 C67.85 0.02, 107.66 -0.32, 154 0 M32 0 C68.64 -1.43, 105.34 -1.14, 154 0 M154 0 C176.48 -1.78, 185.54 8.76, 186 32 M154 0 C175.7 2.27, 184.6 11.46, 186 32 M186 32 C186.35 84.92, 185.99 137.94, 186 195 M186 32 C184.61 66.56, 184.96 101.99, 186 195 M186 195 C187.52 215.14, 177.12 226.09, 154 227 M186 195 C186.78 218.16, 175.5 226.93, 154 227 M154 227 C113.17 228.6, 74.92 229.01, 32 227 M154 227 C117.25 227.55, 78.53 227.88, 32 227 M32 227 C8.85 227.46, -0.1 217.98, 0 195 M32 227 C10.91 228.57, 1.2 217.1, 0 195 M0 195 C1.79 154.13, 3.36 113.94, 0 32 M0 195 C0.38 139.94, -1.03 86.58, 0 32 M0 32 C1.28 10.16, 11.09 -0.39, 32 0 M0 32 C1.11 10.14, 8.59 0.47, 32 0" stroke="#2f9e44" stroke-width="2" fill="none"></path></g><g transform="translate(46.01005554199219 220.25) rotate(0 56.98994445800781 12.5)"><text x="56.98994445800781" y="17.52" font-family="Virgil, Segoe UI Emoji" font-size="20px" fill="#2f9e44" text-anchor="middle" style="white-space: pre;" direction="ltr" dominant-baseline="alphabetic">Colyseus #1</text></g><g stroke-linecap="round" transform="translate(12.55078125 370.47265625) rotate(0 291 37.5)"><path d="M18.75 0 C229.68 -2.19, 439.38 -1.82, 563.25 0 M18.75 0 C226.72 -1.61, 434.87 -1.65, 563.25 0 M563.25 0 C575.82 -1.76, 580.05 4.81, 582 18.75 M563.25 0 C575.91 1.53, 580.41 5.53, 582 18.75 M582 18.75 C580.78 32.41, 583.32 41.81, 582 56.25 M582 18.75 C581.03 26.54, 581.36 33.39, 582 56.25 M582 56.25 C582.15 70.1, 576.29 76.58, 563.25 75 M582 56.25 C582.85 69.35, 575.85 76.71, 563.25 75 M563.25 75 C440.93 73.35, 317.1 72.28, 18.75 75 M563.25 75 C351.44 77.07, 139.84 77.23, 18.75 75 M18.75 75 C4.88 73.76, 0.08 68.4, 0 56.25 M18.75 75 C8.43 77.12, -1.03 69.35, 0 56.25 M0 56.25 C-0.56 42.75, -1.04 27.81, 0 18.75 M0 56.25 C0.46 47.94, 0.76 41.64, 0 18.75 M0 18.75 C-1.14 8.11, 6.07 1.43, 18.75 0 M0 18.75 C1.63 4.35, 5.11 1.2, 18.75 0" stroke="#2f9e44" stroke-width="2" fill="none"></path></g><g transform="translate(234.15082550048828 395.47265625) rotate(0 69.39995574951172 12.5)"><text x="69.39995574951172" y="17.52" font-family="Virgil, Segoe UI Emoji" font-size="20px" fill="#2f9e44" text-anchor="middle" style="white-space: pre;" direction="ltr" dominant-baseline="alphabetic">Load balancer</text></g><g stroke-linecap="round" transform="translate(181.60546875 676.96875) rotate(0 111 51.5)"><path d="M150.79 4.14 C164.84 5.75, 178.88 10.58, 189.33 15.18 C199.79 19.79, 208.06 25.39, 213.52 31.79 C218.99 38.18, 222.6 46.49, 222.15 53.54 C221.69 60.59, 217.67 67.69, 210.8 74.08 C203.92 80.48, 192.67 87.4, 180.92 91.93 C169.17 96.46, 154.62 99.48, 140.29 101.27 C125.96 103.05, 109.86 103.62, 94.95 102.66 C80.03 101.7, 63.45 99.24, 50.79 95.53 C38.14 91.81, 27.22 86.16, 19.04 80.36 C10.86 74.55, 4.3 67.61, 1.71 60.69 C-0.89 53.77, -0.24 45.71, 3.46 38.85 C7.16 31.99, 14.41 25.11, 23.92 19.52 C33.43 13.93, 47.18 8.51, 60.53 5.33 C73.87 2.14, 87.51 0.62, 103.98 0.41 C120.46 0.21, 149.04 2.64, 159.39 4.09 C169.74 5.53, 166.94 8.08, 166.08 9.09 M152.1 4.51 C166.33 6.02, 180.3 9.24, 190.8 14.24 C201.3 19.24, 210 28.01, 215.12 34.51 C220.24 41.02, 222.4 46.38, 221.52 53.29 C220.64 60.19, 216.63 69.64, 209.84 75.95 C203.05 82.27, 192.61 86.71, 180.78 91.17 C168.95 95.63, 153.68 101.05, 138.83 102.72 C123.98 104.39, 106.6 102.4, 91.66 101.2 C76.71 100, 61.71 99.36, 49.16 95.52 C36.61 91.69, 24.31 84.24, 16.35 78.2 C8.39 72.16, 3.65 66.13, 1.4 59.28 C-0.84 52.44, -0.98 43.68, 2.9 37.15 C6.78 30.62, 14.97 25.31, 24.69 20.12 C34.41 14.93, 47.42 9.23, 61.21 6.03 C75 2.82, 92.43 1.1, 107.43 0.88 C122.42 0.65, 144.01 4.05, 151.2 4.67 C158.39 5.29, 151.33 3.94, 150.57 4.59" stroke="#1e1e1e" stroke-width="2" fill="none"></path></g><g transform="translate(236.07950666329322 714.9751645619963) rotate(0 56.53710937499997 13.577586206896541)"><text x="56.537109375" y="19.030344827586205" font-family="Virgil, Segoe UI Emoji" font-size="21.724137931034484px" fill="#1e1e1e" text-anchor="middle" style="white-space: pre;" direction="ltr" dominant-baseline="alphabetic">Client SDK</text></g><g stroke-linecap="round" transform="translate(212.921875 117.98046875) rotate(0 93 113.5)"><path d="M32 0 C79.84 -2.94, 129.74 -3.04, 154 0 M32 0 C58.05 -0.26, 86.06 0.97, 154 0 M154 0 C174.61 0.02, 185.79 8.93, 186 32 M154 0 C176.06 1.57, 187.22 9.17, 186 32 M186 32 C185.23 82.64, 185.1 129.33, 186 195 M186 32 C186.47 79.31, 186.49 126.69, 186 195 M186 195 C185.16 215.33, 176.12 226.99, 154 227 M186 195 C183.81 217.43, 175.79 225.56, 154 227 M154 227 C124.11 226.1, 98.45 225.44, 32 227 M154 227 C105.79 228.25, 57.11 228.27, 32 227 M32 227 C9.89 228.02, 1.83 216.13, 0 195 M32 227 C12.18 225.84, 1.97 216.69, 0 195 M0 195 C-0.19 160.54, 0.08 121.67, 0 32 M0 195 C-2.16 142.8, -1.45 90.2, 0 32 M0 32 C-0.79 10.22, 12.12 1.43, 32 0 M0 32 C-1.69 11.36, 12.67 1.2, 32 0" stroke="#2f9e44" stroke-width="2" fill="none"></path></g><g transform="translate(244.52193450927734 218.98046875) rotate(0 61.399940490722656 12.5)"><text x="61.399940490722656" y="17.52" font-family="Virgil, Segoe UI Emoji" font-size="20px" fill="#2f9e44" text-anchor="middle" style="white-space: pre;" direction="ltr" dominant-baseline="alphabetic">Colyseus #2</text></g><g stroke-linecap="round" transform="translate(413.796875 117.54296875) rotate(0 93 113.5)"><path d="M32 0 C56.6 -1.35, 82.46 0.73, 154 0 M32 0 C59.84 -0.83, 87.76 -0.32, 154 0 M154 0 C173.93 1.58, 185.15 11.48, 186 32 M154 0 C174.34 1.63, 188.06 11.59, 186 32 M186 32 C187.31 78.86, 185.03 123.5, 186 195 M186 32 C186.28 75.37, 186.81 120.91, 186 195 M186 195 C185.77 216.09, 175.09 228.98, 154 227 M186 195 C185.31 215.55, 177.12 225.82, 154 227 M154 227 C126.17 227.32, 96.75 227.25, 32 227 M154 227 C116.92 227.05, 79.18 227.04, 32 227 M32 227 C12.39 227.58, -0.63 214.46, 0 195 M32 227 C10.23 226.57, -1.95 214.87, 0 195 M0 195 C-0.34 140.77, 0.63 81.46, 0 32 M0 195 C-0.91 139.14, -0.02 83.05, 0 32 M0 32 C0.8 12.29, 10.43 -0.63, 32 0 M0 32 C-2.21 10.52, 12.93 -0.15, 32 0" stroke="#2f9e44" stroke-width="2" fill="none"></path></g><g transform="translate(445.7069320678711 218.54296875) rotate(0 61.089942932128906 12.5)"><text x="61.089942932128906" y="17.52" font-family="Virgil, Segoe UI Emoji" font-size="20px" fill="#2f9e44" text-anchor="middle" style="white-space: pre;" direction="ltr" dominant-baseline="alphabetic">Colyseus #3</text></g><g stroke-linecap="round" transform="translate(263.4921875 290.578125) rotate(0 38 15)"><path d="M7.5 0 C24.34 -1.41, 42.39 1.45, 68.5 0 M7.5 0 C30.18 -0.28, 51.22 -0.68, 68.5 0 M68.5 0 C74.22 0.24, 74.75 1.77, 76 7.5 M68.5 0 C75.54 -0.08, 78.11 3.56, 76 7.5 M76 7.5 C74.64 11.71, 76.4 15.11, 76 22.5 M76 7.5 C76.68 11.32, 75.57 14.87, 76 22.5 M76 22.5 C76.46 27.53, 74.37 29.87, 68.5 30 M76 22.5 C75.74 28.86, 73.59 31.42, 68.5 30 M68.5 30 C50.03 31.62, 30.7 28.99, 7.5 30 M68.5 30 C51.13 29.48, 32.46 30.37, 7.5 30 M7.5 30 C2.15 31.86, 1.43 26.73, 0 22.5 M7.5 30 C4.41 31.43, -0.58 27.94, 0 22.5 M0 22.5 C-1.19 16.03, 0.97 10.94, 0 7.5 M0 22.5 C-0.08 17.82, -0.42 12.96, 0 7.5 M0 7.5 C1.24 3.63, 0.54 -0.01, 7.5 0 M0 7.5 C-1.35 3.57, 2.92 0.26, 7.5 0" stroke="#1971c2" stroke-width="2" fill="none"></path></g><g transform="translate(272.44419860839844 295.578125) rotate(0 29.047988891601562 10)"><text x="29.047988891601562" y="14.016" font-family="Virgil, Segoe UI Emoji" font-size="16px" fill="#1971c2" text-anchor="middle" style="white-space: pre;" direction="ltr" dominant-baseline="alphabetic">Room 2</text></g><g stroke-linecap="round" transform="translate(463.39453125 293.64453125) rotate(0 38 15)"><path d="M7.5 0 C32.27 -0.17, 55.53 -0.2, 68.5 0 M7.5 0 C20.37 0.36, 35.11 0.3, 68.5 0 M68.5 0 C71.54 -0.01, 74.83 3.43, 76 7.5 M68.5 0 C73.92 0.26, 74.77 3.61, 76 7.5 M76 7.5 C75.24 10.64, 75.5 14.24, 76 22.5 M76 7.5 C76.13 10.5, 76.43 13.93, 76 22.5 M76 22.5 C75.71 26.21, 73.93 28.57, 68.5 30 M76 22.5 C75.02 27.22, 72.63 29.62, 68.5 30 M68.5 30 C48.58 30.14, 30.04 30.97, 7.5 30 M68.5 30 C54.49 30.81, 39.85 30.22, 7.5 30 M7.5 30 C3.5 31.7, -0.43 29.39, 0 22.5 M7.5 30 C0.86 28.82, 2.18 29.01, 0 22.5 M0 22.5 C1.24 17.25, 0.02 11.07, 0 7.5 M0 22.5 C-0.25 18.26, -0.64 13.65, 0 7.5 M0 7.5 C0.18 3.39, 1.89 -0.14, 7.5 0 M0 7.5 C2.1 1.09, 3.92 1.79, 7.5 0" stroke="#1971c2" stroke-width="2" fill="none"></path></g><g transform="translate(472.59454345703125 298.64453125) rotate(0 28.79998779296875 10)"><text x="28.79998779296875" y="14.016" font-family="Virgil, Segoe UI Emoji" font-size="16px" fill="#1971c2" text-anchor="middle" style="white-space: pre;" direction="ltr" dominant-baseline="alphabetic">Room 3</text></g><g stroke-linecap="round" transform="translate(107.30859375 291) rotate(0 38 15)"><path d="M7.5 0 C32.93 -0.78, 53.47 -0.86, 68.5 0 M7.5 0 C20.95 -0.05, 34.51 -0.79, 68.5 0 M68.5 0 C74.8 1.61, 75.76 2.94, 76 7.5 M68.5 0 C74.96 2, 75.11 0.88, 76 7.5 M76 7.5 C76.42 9.6, 77.33 15.76, 76 22.5 M76 7.5 C76.24 10.81, 75.82 13.84, 76 22.5 M76 22.5 C75.91 25.94, 74.08 30.22, 68.5 30 M76 22.5 C76.29 26.46, 74.29 31.41, 68.5 30 M68.5 30 C50.44 29.18, 36.72 30.73, 7.5 30 M68.5 30 C45.12 30.13, 21.71 29.34, 7.5 30 M7.5 30 C1.03 29.09, 1.89 28.29, 0 22.5 M7.5 30 C1.53 31.23, 2.11 27.24, 0 22.5 M0 22.5 C-0.26 18.3, 1.04 11.59, 0 7.5 M0 22.5 C-0.51 16.71, 0.5 10.12, 0 7.5 M0 7.5 C-0.08 0.87, 1.1 -1.27, 7.5 0 M0 7.5 C0.19 3.52, 1.66 -1.14, 7.5 0" stroke="#1971c2" stroke-width="2" fill="none"></path></g><g transform="translate(116.83660888671875 296) rotate(0 28.47198486328125 10)"><text x="28.47198486328125" y="14.016" font-family="Virgil, Segoe UI Emoji" font-size="16px" fill="#1971c2" text-anchor="middle" style="white-space: pre;" direction="ltr" dominant-baseline="alphabetic">Room 4</text></g><g stroke-linecap="round" transform="translate(20.875 291.8984375) rotate(0 38 15)"><path d="M7.5 0 C19.45 -0.51, 33.6 -1.55, 68.5 0 M7.5 0 C29.59 -0.39, 49.72 0.11, 68.5 0 M68.5 0 C75.09 0.65, 76.07 2.97, 76 7.5 M68.5 0 C73.48 1.79, 75.89 4.46, 76 7.5 M76 7.5 C76.25 11.96, 76.76 17.12, 76 22.5 M76 7.5 C76.78 12.58, 76.73 16.81, 76 22.5 M76 22.5 C76.72 26.39, 73.28 29.52, 68.5 30 M76 22.5 C77.09 27.44, 73.41 28.02, 68.5 30 M68.5 30 C55.45 30.83, 42.13 31.38, 7.5 30 M68.5 30 C55.7 30.53, 43.37 29.85, 7.5 30 M7.5 30 C4.12 30.1, -1.03 27.64, 0 22.5 M7.5 30 C0.57 31.27, 2.13 25.27, 0 22.5 M0 22.5 C0.52 17.67, -1.5 10.32, 0 7.5 M0 22.5 C-0.29 16.67, -0.68 10.73, 0 7.5 M0 7.5 C-1.54 1.79, 1.23 0.37, 7.5 0 M0 7.5 C-0.9 3.65, 4.77 2.06, 7.5 0" stroke="#1971c2" stroke-width="2" fill="none"></path></g><g transform="translate(33.355010986328125 296.8984375) rotate(0 25.519989013671875 10)"><text x="25.519989013671875" y="14.016" font-family="Virgil, Segoe UI Emoji" font-size="16px" fill="#1971c2" text-anchor="middle" style="white-space: pre;" direction="ltr" dominant-baseline="alphabetic">Room 1</text></g><g stroke-linecap="round"><g transform="translate(306.69140625 94.15234375) rotate(0 0.4355789720185612 11.36314244850422)"><path d="M0.12 -0.37 C0.37 3.38, 1.18 18.71, 1.35 22.63 M-0.48 0.63 C-0.3 4.43, 0.4 19.25, 0.86 23.1" stroke="#e03131" stroke-width="2" fill="none"></path></g></g><mask></mask><g stroke-linecap="round"><g transform="translate(106.62849296918603 92.89461642981973) rotate(0 -1.004175980526469 11.988119005884514)"><path d="M-0.41 0.4 C-0.77 4.33, -1.67 19.39, -2 23.24 M0.37 0.13 C-0.06 4.17, -1.85 19.84, -2.38 23.85" stroke="#e03131" stroke-width="2" fill="none"></path></g></g><mask></mask><g stroke-linecap="round"><g transform="translate(499.26628830404013 95.5594430749025) rotate(0 1.047285427130987 10.468759290095178)"><path d="M0.13 0.16 C0.55 3.73, 2.1 17.62, 2.57 21.17 M-0.47 -0.23 C-0.12 3.19, 1.61 16.85, 2.15 20.34" stroke="#e03131" stroke-width="2" fill="none"></path></g></g><mask></mask><g stroke-linecap="round"><g transform="translate(90.515625 368.046875) rotate(0 0.13311207687556248 -9.879573951477653)"><path d="M0.32 -0.32 C0.38 -3.6, 0.41 -16.31, 0.45 -19.58 M-0.18 0.71 C-0.19 -2.75, -0.01 -17.11, 0.07 -20.47" stroke="#2f9e44" stroke-width="2" fill="none"></path></g></g><mask></mask><g stroke-linecap="round"><g transform="translate(309.2200983524717 366.54675912532025) rotate(0 0.21886992616231282 -10.128254058863966)"><path d="M0.38 -0.13 C0.47 -3.49, 0.49 -16.88, 0.52 -20.13 M-0.09 -0.67 C-0.06 -3.98, 0.11 -16.58, 0.18 -19.63" stroke="#2f9e44" stroke-width="2" fill="none"></path></g></g><mask></mask><g stroke-linecap="round"><g transform="translate(508.5990046024716 366.09754037532025) rotate(0 0.1628268830501156 -9.866744307662593)"><path d="M0 0.49 C-0.08 -2.77, -0.17 -16.03, -0.04 -19.42 M-0.67 0.26 C-0.61 -3.16, 0.78 -16.96, 1 -20.22" stroke="#2f9e44" stroke-width="2" fill="none"></path></g></g><mask></mask><g transform="translate(25.90234375 133.88671875) rotate(0 60.71995544433594 10)"><text x="0" y="14.016" font-family="Virgil, Segoe UI Emoji" font-size="16px" fill="#1971c2" text-anchor="start" style="white-space: pre;" direction="ltr" dominant-baseline="alphabetic">node-1.mygame.io</text></g><g transform="translate(228.3422622680664 132.5546875) rotate(0 64.24795532226562 10)"><text x="0" y="14.016" font-family="Virgil, Segoe UI Emoji" font-size="16px" fill="#1971c2" text-anchor="start" style="white-space: pre;" direction="ltr" dominant-baseline="alphabetic">node-2.mygame.io</text></g><g transform="translate(428.39320373535156 131.77734375) rotate(0 63.99995422363281 10)"><text x="0" y="14.016" font-family="Virgil, Segoe UI Emoji" font-size="16px" fill="#1971c2" text-anchor="start" style="white-space: pre;" direction="ltr" dominant-baseline="alphabetic">node-3.mygame.io</text></g><g transform="translate(28.230545043945312 386.1953125) rotate(0 72.43994140625 10)"><text x="0" y="14.016" font-family="Virgil, Segoe UI Emoji" font-size="16px" fill="#1971c2" text-anchor="start" style="white-space: pre;" direction="ltr" dominant-baseline="alphabetic">all-nodes.mygame.io</text></g><g mask="url(#mask-9bsYMLq4bf5N23lBj_CH-)" stroke-linecap="round"><g transform="translate(292.53402025977016 675.9645412846105) rotate(0 -0.29558549128063305 -34.80910799617456)"><path d="M0.46 -0.95 C0.64 -5.69, 0.2 -16.76, 0.16 -28.4 C0.11 -40.04, 0.3 -63.72, 0.2 -70.79 M-0.76 1.17 C-0.7 -3.41, -1.16 -15.26, -1.09 -27.07 C-1.01 -38.88, -0.43 -62.55, -0.3 -69.71" stroke="#1e1e1e" stroke-width="2" fill="none"></path></g><g transform="translate(292.53402025977016 675.9645412846105) rotate(0 -0.29558549128063305 -34.80910799617456)"><path d="M-0.99 -71.2 L3.96 -56.46 L-6.83 -54.58 L0.54 -69.45" stroke="none" stroke-width="0" fill="#1e1e1e" fill-rule="evenodd"></path><path d="M-0.3 -69.71 C-0.13 -67.4, 1.89 -63, 5.75 -55.98 M-0.3 -69.71 C1.73 -65.7, 2.75 -62.42, 5.75 -55.98 M5.75 -55.98 C1.76 -57.17, -3.76 -56.75, -6.93 -56.25 M5.75 -55.98 C1.1 -56.67, -2.87 -55.96, -6.93 -56.25 M-6.93 -56.25 C-4.06 -60.78, -2.22 -66.74, -0.3 -69.71 M-6.93 -56.25 C-4.01 -60.93, -2.43 -66.71, -0.3 -69.71 M-0.3 -69.71 C-0.3 -69.71, -0.3 -69.71, -0.3 -69.71 M-0.3 -69.71 C-0.3 -69.71, -0.3 -69.71, -0.3 -69.71" stroke="#1e1e1e" stroke-width="2" fill="none"></path></g></g><mask id="mask-9bsYMLq4bf5N23lBj_CH-"><rect x="0" y="0" fill="#fff" width="393.57308275977016" height="846.307988819221"></rect><rect x="213.56640625" y="638.3648437499999" fill="#000" width="159.375" height="19.2" opacity="1"></rect></mask><g transform="translate(213.56640625 638.36484375) rotate(0 78.67202851848953 2.79058953843591)"><text x="79.6875" y="15.45" font-family="Cascadia, Segoe UI Emoji" font-size="16px" fill="#1e1e1e" text-anchor="middle" style="white-space: pre;" direction="ltr" dominant-baseline="alphabetic">join Or Create ()</text></g><g mask="url(#mask-ElBF1nw2_rQ8Q1VqPIqGl)" stroke-linecap="round"><g transform="translate(298.91015625 435.47265625) rotate(0 -0.6843606678627907 45.15486039141953)"><path d="M0.79 -0.81 C1.08 6.89, 1.24 31.73, 0.76 46.93 C0.28 62.12, -1.34 82.89, -2.1 90.34 M-0.25 1.38 C0.07 8.67, 0.78 30.2, 0.42 45.15 C0.05 60.11, -1.71 83.16, -2.44 91.12" stroke="#1e1e1e" stroke-width="2" fill="none"></path></g><g transform="translate(298.91015625 435.47265625) rotate(0 -0.6843606678627907 45.15486039141953)"><path d="M-3.84 91.66 L-8.47 75.34 L5.65 79.94 L-3.76 90.4" stroke="none" stroke-width="0" fill="#1e1e1e" fill-rule="evenodd"></path><path d="M-2.44 91.12 C-4.67 89.52, -3.96 86.03, -7.65 77.06 M-2.44 91.12 C-3.96 88.17, -4.16 85.72, -7.65 77.06 M-7.65 77.06 C-3.46 77.14, 0.25 78.93, 4.99 78.09 M-7.65 77.06 C-2.99 76.89, 0.95 77.82, 4.99 78.09 M4.99 78.09 C1.02 82.02, -1.45 88.38, -2.44 91.12 M4.99 78.09 C3.17 81.54, 2.17 83.71, -2.44 91.12 M-2.44 91.12 C-2.44 91.12, -2.44 91.12, -2.44 91.12 M-2.44 91.12 C-2.44 91.12, -2.44 91.12, -2.44 91.12" stroke="#1e1e1e" stroke-width="2" fill="none"></path></g></g><mask id="mask-ElBF1nw2_rQ8Q1VqPIqGl"><rect x="0" y="0" fill="#fff" width="401.8206549446745" height="626.8439415988757"></rect><rect x="228.2109375" y="462.53046874999995" fill="#000" width="140.625" height="38.4" opacity="1"></rect></mask><g transform="translate(228.2109375 462.53046875) rotate(0 70.01485808213721 18.09704789141952)"><text x="70.3125" y="15.45" font-family="Cascadia, Segoe UI Emoji" font-size="16px" fill="#1e1e1e" text-anchor="middle" style="white-space: pre;" direction="ltr" dominant-baseline="alphabetic">HTTP Response:</text><text x="70.3125" y="34.65" font-family="Cascadia, Segoe UI Emoji" font-size="16px" fill="#1e1e1e" text-anchor="middle" style="white-space: pre;" direction="ltr" dominant-baseline="alphabetic">"Room 3", at #3</text></g><g mask="url(#mask-Zd2V1puNa16JhCyoeHU9q)" stroke-linecap="round"><g transform="translate(393.92564163780594 558.3636816435242) rotate(0 54.87056763505922 -118.77720537676147)"><path d="M0.8 -1.04 C16.82 -10.5, 78.99 -17.12, 96.94 -56.38 C114.9 -95.65, 106.89 -206.55, 108.52 -236.63 M-0.24 1.04 C16.06 -8.34, 80.93 -15.36, 99.02 -55.3 C117.11 -95.24, 107.05 -208.55, 108.3 -238.59" stroke="#1e1e1e" stroke-width="2" fill="none"></path></g><g transform="translate(393.92564163780594 558.3636816435242) rotate(0 54.87056763505922 -118.77720537676147)"><path d="M106.62 -238.26 L113.55 -226.39 L101.4 -223.5 L107.89 -236.72" stroke="none" stroke-width="0" fill="#1e1e1e" fill-rule="evenodd"></path><path d="M108.3 -238.59 C109.49 -235.17, 112.12 -227.41, 114.9 -225.12 M108.3 -238.59 C110.84 -234.11, 112.3 -228.38, 114.9 -225.12 M114.9 -225.12 C111.91 -225.01, 109.24 -223.92, 102.22 -224.88 M114.9 -225.12 C112.37 -225.17, 109.1 -225.19, 102.22 -224.88 M102.22 -224.88 C104.82 -230.5, 105.6 -236.28, 108.3 -238.59 M102.22 -224.88 C105 -230.45, 107.07 -235.72, 108.3 -238.59 M108.3 -238.59 C108.3 -238.59, 108.3 -238.59, 108.3 -238.59 M108.3 -238.59 C108.3 -238.59, 108.3 -238.59, 108.3 -238.59" stroke="#1e1e1e" stroke-width="2" fill="none"></path></g></g><mask id="mask-Zd2V1puNa16JhCyoeHU9q"><rect x="0" y="0" fill="#fff" width="601.40625" height="895.7234570370483"></rect><rect x="440.50390625" y="483.64765624999995" fill="#000" width="103.125" height="38.4" opacity="1"></rect></mask><g transform="translate(440.50390625 483.64765625) rotate(0 8.292303022865156 -44.061179983237324)"><text x="51.5625" y="15.45" font-family="Cascadia, Segoe UI Emoji" font-size="16px" fill="#1e1e1e" text-anchor="middle" style="white-space: pre;" direction="ltr" dominant-baseline="alphabetic">Connect w/ </text><text x="51.5625" y="34.65" font-family="Cascadia, Segoe UI Emoji" font-size="16px" fill="#1e1e1e" text-anchor="middle" style="white-space: pre;" direction="ltr" dominant-baseline="alphabetic">WebSocket</text></g><g stroke-linecap="round" transform="translate(178.5 527.3515625) rotate(0 114.85546875 30)"><path d="M143.75 7.75 C161.06 12.3, 181.81 19, 200.96 23.25 M143.75 7.75 C161.2 12.11, 179.04 18.53, 200.96 23.25 M200.96 23.25 C229.64 30.66, 228.92 31.23, 200.96 38.75 M200.96 23.25 C230.98 31.43, 230.51 29.31, 200.96 38.75 M200.96 38.75 C178.63 42.55, 155.41 50.07, 143.75 52.25 M200.96 38.75 C179.84 44.38, 158.81 49.65, 143.75 52.25 M143.75 52.25 C115.44 58.33, 113.72 60.03, 86.25 52.25 M143.75 52.25 C113.92 60.68, 113.87 59.53, 86.25 52.25 M86.25 52.25 C74.01 46.8, 57.67 43.62, 28.75 38.75 M86.25 52.25 C67.35 46.95, 47.57 43.5, 28.75 38.75 M28.75 38.75 C1.9 32.11, 0.91 29.52, 28.75 23.25 M28.75 38.75 C-0.65 32.51, -2.21 30.47, 28.75 23.25 M28.75 23.25 C41.68 19.6, 53.16 17.45, 86.25 7.75 M28.75 23.25 C39.69 19.47, 51.83 16.83, 86.25 7.75 M86.25 7.75 C114.53 -0.19, 116.18 -1.57, 143.75 7.75 M86.25 7.75 C115.74 -0.83, 112.94 0.3, 143.75 7.75" stroke="#1e1e1e" stroke-width="2" fill="none"></path></g><g transform="translate(246.552734375 547.7515625) rotate(0 46.875 9.599999999999994)"><text x="46.875" y="15.45" font-family="Cascadia, Segoe UI Emoji" font-size="16px" fill="#1e1e1e" text-anchor="middle" style="white-space: pre;" direction="ltr" dominant-baseline="alphabetic">Match-make</text></g><g mask="url(#mask-lydMqNnKlWh5QrlE_q9-6)" stroke-linecap="round"><g transform="translate(194.3828125 560.12890625) rotate(0 -45.112864646988896 -58.867398592601546)"><path d="M0.68 0.93 C-13.85 -7.21, -74.54 -30.37, -86.74 -50.01 C-98.93 -69.65, -74.55 -105.63, -72.48 -116.9 M-0.42 0.38 C-15.13 -7.51, -75.59 -28.91, -87.63 -48.75 C-99.66 -68.59, -74.84 -107.4, -72.63 -118.67" stroke="#1e1e1e" stroke-width="2" fill="none"></path></g><g transform="translate(194.3828125 560.12890625) rotate(0 -45.112864646988896 -58.867398592601546)"><path d="M-71.61 -119.74 L-71.2 -104.33 L-83.61 -110.31 L-73.47 -119.81" stroke="none" stroke-width="0" fill="#1e1e1e" fill-rule="evenodd"></path><path d="M-72.63 -118.67 C-71.31 -113.53, -72.85 -107.19, -71.76 -103.69 M-72.63 -118.67 C-72.23 -112.83, -71.82 -107.09, -71.76 -103.69 M-71.76 -103.69 C-74.59 -103.96, -78.2 -106.46, -83.54 -108.38 M-71.76 -103.69 C-74.01 -104.44, -77.64 -105.58, -83.54 -108.38 M-83.54 -108.38 C-82.03 -110.92, -78.88 -114.31, -72.63 -118.67 M-83.54 -108.38 C-79.04 -112.17, -74.85 -115.57, -72.63 -118.67 M-72.63 -118.67 C-72.63 -118.67, -72.63 -118.67, -72.63 -118.67 M-72.63 -118.67 C-72.63 -118.67, -72.63 -118.67, -72.63 -118.67" stroke="#1e1e1e" stroke-width="2" fill="none"></path></g></g><mask id="mask-lydMqNnKlWh5QrlE_q9-6"><rect x="0" y="0" fill="#fff" width="381.2265625" height="778.12109375"></rect><rect x="27.8515625" y="491.44843749999995" fill="#000" width="159.375" height="38.4" opacity="1"></rect></mask><g transform="translate(27.8515625 491.4484375) rotate(0 121.4183853530111 9.813070157398442)"><text x="79.6875" y="15.45" font-family="Cascadia, Segoe UI Emoji" font-size="16px" fill="#1e1e1e" text-anchor="middle" style="white-space: pre;" direction="ltr" dominant-baseline="alphabetic">Seat reservation </text><text x="79.6875" y="34.65" font-family="Cascadia, Segoe UI Emoji" font-size="16px" fill="#1e1e1e" text-anchor="middle" style="white-space: pre;" direction="ltr" dominant-baseline="alphabetic">HTTP request</text></g></svg>