<svg version="1.1" xmlns="http://www.w3.org/2000/svg" viewBox="0 0 609.796875 836.5859375" width="1219.59375" height="1673.171875" filter="invert(93%) hue-rotate(180deg)">
  <!-- svg-source:excalidraw -->

  <defs>
    <style class="style-fonts">
      @font-face {
        font-family: "Cascadia";
        src: url("https://excalidraw.com/Cascadia.woff2");
      }
    </style>

  </defs>
  <rect x="0" y="0" width="609.796875" height="836.5859375" fill="#ffffff"></rect><g stroke-linecap="round" transform="translate(12.9375 10) rotate(0 292 42)"><path d="M21 0 M21 0 C159.93 -0.47, 298.79 -0.3, 563 0 M21 0 C206.55 1.18, 392.84 0.47, 563 0 M563 0 C577.66 -0.38, 585.81 6.93, 584 21 M563 0 C578.43 1.25, 585.6 5.96, 584 21 M584 21 C585.52 34.05, 585.99 45.05, 584 63 M584 21 C584.24 31.75, 583.36 42.82, 584 63 M584 63 C583.83 77.8, 575.97 84.73, 563 84 M584 63 C583.45 75.02, 575.46 81.85, 563 84 M563 84 C389.25 84.25, 214.36 84.27, 21 84 M563 84 C414.8 85.07, 265.91 84.68, 21 84 M21 84 C6.16 84.86, -1.67 77.26, 0 63 M21 84 C5.99 84.89, -1.35 77.48, 0 63 M0 63 C-0.74 46.17, 1.73 31.6, 0 21 M0 63 C-0.97 48.48, 0.26 32.77, 0 21 M0 21 C-0.56 6.42, 7.21 -1.46, 21 0 M0 21 C-1.14 6.86, 5.42 -0.7, 21 0" stroke="#e03131" stroke-width="2" fill="none"></path></g><g transform="translate(279.37752532958984 39.5) rotate(0 25.559974670410156 12.5)"><text x="25.559974670410156" y="0" font-family="Inter, ui-sans-serif, system-ui, -apple-system, BlinkMacSystemFont" font-size="20px" fill="#e03131" text-anchor="middle" style="white-space: pre;" direction="ltr" dominant-baseline="text-before-edge">Redis</text></g><g stroke-linecap="round" transform="translate(10 119.25) rotate(0 93 113.5)"><path d="M32 0 M32 0 C67.85 0.02, 107.66 -0.32, 154 0 M32 0 C68.64 -1.43, 105.34 -1.14, 154 0 M154 0 C176.48 -1.78, 185.54 8.76, 186 32 M154 0 C175.7 2.27, 184.6 11.46, 186 32 M186 32 C186.35 84.92, 185.99 137.94, 186 195 M186 32 C184.61 66.56, 184.96 101.99, 186 195 M186 195 C187.52 215.14, 177.12 226.09, 154 227 M186 195 C186.78 218.16, 175.5 226.93, 154 227 M154 227 C113.17 228.6, 74.92 229.01, 32 227 M154 227 C117.25 227.55, 78.53 227.88, 32 227 M32 227 C8.85 227.46, -0.1 217.98, 0 195 M32 227 C10.91 228.57, 1.2 217.1, 0 195 M0 195 C1.79 154.13, 3.36 113.94, 0 32 M0 195 C0.38 139.94, -1.03 86.58, 0 32 M0 32 C1.28 10.16, 11.09 -0.39, 32 0 M0 32 C1.11 10.14, 8.59 0.47, 32 0" stroke="#2f9e44" stroke-width="2" fill="none"></path></g><g transform="translate(46.01005554199219 220.25) rotate(0 56.98994445800781 12.5)"><text x="56.98994445800781" y="0" font-family="Inter, ui-sans-serif, system-ui, -apple-system, BlinkMacSystemFont" font-size="20px" fill="#2f9e44" text-anchor="middle" style="white-space: pre;" direction="ltr" dominant-baseline="text-before-edge">Colyseus #1</text></g><g stroke-linecap="round" transform="translate(12.55078125 370.47265625) rotate(0 291 37.5)"><path d="M18.75 0 M18.75 0 C229.68 -2.19, 439.38 -1.82, 563.25 0 M18.75 0 C226.72 -1.61, 434.87 -1.65, 563.25 0 M563.25 0 C575.82 -1.76, 580.05 4.81, 582 18.75 M563.25 0 C575.91 1.53, 580.41 5.53, 582 18.75 M582 18.75 C580.78 32.41, 583.32 41.81, 582 56.25 M582 18.75 C581.03 26.54, 581.36 33.39, 582 56.25 M582 56.25 C582.15 70.1, 576.29 76.58, 563.25 75 M582 56.25 C582.85 69.35, 575.85 76.71, 563.25 75 M563.25 75 C440.93 73.35, 317.1 72.28, 18.75 75 M563.25 75 C351.44 77.07, 139.84 77.23, 18.75 75 M18.75 75 C4.88 73.76, 0.08 68.4, 0 56.25 M18.75 75 C8.43 77.12, -1.03 69.35, 0 56.25 M0 56.25 C-0.56 42.75, -1.04 27.81, 0 18.75 M0 56.25 C0.46 47.94, 0.76 41.64, 0 18.75 M0 18.75 C-1.14 8.11, 6.07 1.43, 18.75 0 M0 18.75 C1.63 4.35, 5.11 1.2, 18.75 0" stroke="#2f9e44" stroke-width="2" fill="none"></path></g><g transform="translate(234.15082550048828 395.47265625) rotate(0 69.39995574951172 12.5)"><text x="69.39995574951172" y="0" font-family="Inter, ui-sans-serif, system-ui, -apple-system, BlinkMacSystemFont" font-size="20px" fill="#2f9e44" text-anchor="middle" style="white-space: pre;" direction="ltr" dominant-baseline="text-before-edge">Load balancer</text></g><g stroke-linecap="round" transform="translate(184.86328125 723.5859375) rotate(0 111 51.5)"><path d="M150.79 4.14 C164.84 5.75, 178.88 10.58, 189.33 15.18 C199.79 19.79, 208.06 25.39, 213.52 31.79 C218.99 38.18, 222.6 46.49, 222.15 53.54 C221.69 60.59, 217.67 67.69, 210.8 74.08 C203.92 80.48, 192.67 87.4, 180.92 91.93 C169.17 96.46, 154.62 99.48, 140.29 101.27 C125.96 103.05, 109.86 103.62, 94.95 102.66 C80.03 101.7, 63.45 99.24, 50.79 95.53 C38.14 91.81, 27.22 86.16, 19.04 80.36 C10.86 74.55, 4.3 67.61, 1.71 60.69 C-0.89 53.77, -0.24 45.71, 3.46 38.85 C7.16 31.99, 14.41 25.11, 23.92 19.52 C33.43 13.93, 47.18 8.51, 60.53 5.33 C73.87 2.14, 87.51 0.62, 103.98 0.41 C120.46 0.21, 149.04 2.64, 159.39 4.09 C169.74 5.53, 166.94 8.08, 166.08 9.09 M152.1 4.51 C166.33 6.02, 180.3 9.24, 190.8 14.24 C201.3 19.24, 210 28.01, 215.12 34.51 C220.24 41.02, 222.4 46.38, 221.52 53.29 C220.64 60.19, 216.63 69.64, 209.84 75.95 C203.05 82.27, 192.61 86.71, 180.78 91.17 C168.95 95.63, 153.68 101.05, 138.83 102.72 C123.98 104.39, 106.6 102.4, 91.66 101.2 C76.71 100, 61.71 99.36, 49.16 95.52 C36.61 91.69, 24.31 84.24, 16.35 78.2 C8.39 72.16, 3.65 66.13, 1.4 59.28 C-0.84 52.44, -0.98 43.68, 2.9 37.15 C6.78 30.62, 14.97 25.31, 24.69 20.12 C34.41 14.93, 47.42 9.23, 61.21 6.03 C75 2.82, 92.43 1.1, 107.43 0.88 C122.42 0.65, 144.01 4.05, 151.2 4.67 C158.39 5.29, 151.33 3.94, 150.57 4.59" stroke="#1e1e1e" stroke-width="2" fill="none"></path></g><g transform="translate(239.33731916329316 761.5923520619963) rotate(0 56.537109375 13.577586206896541)"><text x="56.537109375" y="0" font-family="Inter, ui-sans-serif, system-ui, -apple-system, BlinkMacSystemFont" font-size="21.724137931034484px" fill="#1e1e1e" text-anchor="middle" style="white-space: pre;" direction="ltr" dominant-baseline="text-before-edge">Client SDK</text></g><g stroke-linecap="round" transform="translate(212.921875 117.98046875) rotate(0 93 113.5)"><path d="M32 0 M32 0 C79.84 -2.94, 129.74 -3.04, 154 0 M32 0 C58.05 -0.26, 86.06 0.97, 154 0 M154 0 C174.61 0.02, 185.79 8.93, 186 32 M154 0 C176.06 1.57, 187.22 9.17, 186 32 M186 32 C185.23 82.64, 185.1 129.33, 186 195 M186 32 C186.47 79.31, 186.49 126.69, 186 195 M186 195 C185.16 215.33, 176.12 226.99, 154 227 M186 195 C183.81 217.43, 175.79 225.56, 154 227 M154 227 C124.11 226.1, 98.45 225.44, 32 227 M154 227 C105.79 228.25, 57.11 228.27, 32 227 M32 227 C9.89 228.02, 1.83 216.13, 0 195 M32 227 C12.18 225.84, 1.97 216.69, 0 195 M0 195 C-0.19 160.54, 0.08 121.67, 0 32 M0 195 C-2.16 142.8, -1.45 90.2, 0 32 M0 32 C-0.79 10.22, 12.12 1.43, 32 0 M0 32 C-1.69 11.36, 12.67 1.2, 32 0" stroke="#2f9e44" stroke-width="2" fill="none"></path></g><g transform="translate(244.52193450927734 218.98046875) rotate(0 61.399940490722656 12.5)"><text x="61.399940490722656" y="0" font-family="Inter, ui-sans-serif, system-ui, -apple-system, BlinkMacSystemFont" font-size="20px" fill="#2f9e44" text-anchor="middle" style="white-space: pre;" direction="ltr" dominant-baseline="text-before-edge">Colyseus #2</text></g><g stroke-linecap="round" transform="translate(413.796875 117.54296875) rotate(0 93 113.5)"><path d="M32 0 M32 0 C56.6 -1.35, 82.46 0.73, 154 0 M32 0 C59.84 -0.83, 87.76 -0.32, 154 0 M154 0 C173.93 1.58, 185.15 11.48, 186 32 M154 0 C174.34 1.63, 188.06 11.59, 186 32 M186 32 C187.31 78.86, 185.03 123.5, 186 195 M186 32 C186.28 75.37, 186.81 120.91, 186 195 M186 195 C185.77 216.09, 175.09 228.98, 154 227 M186 195 C185.31 215.55, 177.12 225.82, 154 227 M154 227 C126.17 227.32, 96.75 227.25, 32 227 M154 227 C116.92 227.05, 79.18 227.04, 32 227 M32 227 C12.39 227.58, -0.63 214.46, 0 195 M32 227 C10.23 226.57, -1.95 214.87, 0 195 M0 195 C-0.34 140.77, 0.63 81.46, 0 32 M0 195 C-0.91 139.14, -0.02 83.05, 0 32 M0 32 C0.8 12.29, 10.43 -0.63, 32 0 M0 32 C-2.21 10.52, 12.93 -0.15, 32 0" stroke="#2f9e44" stroke-width="2" fill="none"></path></g><g transform="translate(445.7069320678711 218.54296875) rotate(0 61.089942932128906 12.5)"><text x="61.089942932128906" y="0" font-family="Inter, ui-sans-serif, system-ui, -apple-system, BlinkMacSystemFont" font-size="20px" fill="#2f9e44" text-anchor="middle" style="white-space: pre;" direction="ltr" dominant-baseline="text-before-edge">Colyseus #3</text></g><g stroke-linecap="round" transform="translate(263.4921875 290.578125) rotate(0 38 15)"><path d="M7.5 0 M7.5 0 C24.34 -1.41, 42.39 1.45, 68.5 0 M7.5 0 C30.18 -0.28, 51.22 -0.68, 68.5 0 M68.5 0 C74.22 0.24, 74.75 1.77, 76 7.5 M68.5 0 C75.54 -0.08, 78.11 3.56, 76 7.5 M76 7.5 C74.64 11.71, 76.4 15.11, 76 22.5 M76 7.5 C76.68 11.32, 75.57 14.87, 76 22.5 M76 22.5 C76.46 27.53, 74.37 29.87, 68.5 30 M76 22.5 C75.74 28.86, 73.59 31.42, 68.5 30 M68.5 30 C50.03 31.62, 30.7 28.99, 7.5 30 M68.5 30 C51.13 29.48, 32.46 30.37, 7.5 30 M7.5 30 C2.15 31.86, 1.43 26.73, 0 22.5 M7.5 30 C4.41 31.43, -0.58 27.94, 0 22.5 M0 22.5 C-1.19 16.03, 0.97 10.94, 0 7.5 M0 22.5 C-0.08 17.82, -0.42 12.96, 0 7.5 M0 7.5 C1.24 3.63, 0.54 -0.01, 7.5 0 M0 7.5 C-1.35 3.57, 2.92 0.26, 7.5 0" stroke="#1971c2" stroke-width="2" fill="none"></path></g><g transform="translate(272.44419860839844 295.578125) rotate(0 29.047988891601562 10)"><text x="29.047988891601562" y="0" font-family="Inter, ui-sans-serif, system-ui, -apple-system, BlinkMacSystemFont" font-size="16px" fill="#1971c2" text-anchor="middle" style="white-space: pre;" direction="ltr" dominant-baseline="text-before-edge">Room 2</text></g><g stroke-linecap="round" transform="translate(463.39453125 293.64453125) rotate(0 38 15)"><path d="M7.5 0 M7.5 0 C32.27 -0.17, 55.53 -0.2, 68.5 0 M7.5 0 C20.37 0.36, 35.11 0.3, 68.5 0 M68.5 0 C71.54 -0.01, 74.83 3.43, 76 7.5 M68.5 0 C73.92 0.26, 74.77 3.61, 76 7.5 M76 7.5 C75.24 10.64, 75.5 14.24, 76 22.5 M76 7.5 C76.13 10.5, 76.43 13.93, 76 22.5 M76 22.5 C75.71 26.21, 73.93 28.57, 68.5 30 M76 22.5 C75.02 27.22, 72.63 29.62, 68.5 30 M68.5 30 C48.58 30.14, 30.04 30.97, 7.5 30 M68.5 30 C54.49 30.81, 39.85 30.22, 7.5 30 M7.5 30 C3.5 31.7, -0.43 29.39, 0 22.5 M7.5 30 C0.86 28.82, 2.18 29.01, 0 22.5 M0 22.5 C1.24 17.25, 0.02 11.07, 0 7.5 M0 22.5 C-0.25 18.26, -0.64 13.65, 0 7.5 M0 7.5 C0.18 3.39, 1.89 -0.14, 7.5 0 M0 7.5 C2.1 1.09, 3.92 1.79, 7.5 0" stroke="#1971c2" stroke-width="2" fill="none"></path></g><g transform="translate(472.59454345703125 298.64453125) rotate(0 28.79998779296875 10)"><text x="28.79998779296875" y="0" font-family="Inter, ui-sans-serif, system-ui, -apple-system, BlinkMacSystemFont" font-size="16px" fill="#1971c2" text-anchor="middle" style="white-space: pre;" direction="ltr" dominant-baseline="text-before-edge">Room 3</text></g><g stroke-linecap="round" transform="translate(107.30859375 291) rotate(0 38 15)"><path d="M7.5 0 M7.5 0 C32.93 -0.78, 53.47 -0.86, 68.5 0 M7.5 0 C20.95 -0.05, 34.51 -0.79, 68.5 0 M68.5 0 C74.8 1.61, 75.76 2.94, 76 7.5 M68.5 0 C74.96 2, 75.11 0.88, 76 7.5 M76 7.5 C76.42 9.6, 77.33 15.76, 76 22.5 M76 7.5 C76.24 10.81, 75.82 13.84, 76 22.5 M76 22.5 C75.91 25.94, 74.08 30.22, 68.5 30 M76 22.5 C76.29 26.46, 74.29 31.41, 68.5 30 M68.5 30 C50.44 29.18, 36.72 30.73, 7.5 30 M68.5 30 C45.12 30.13, 21.71 29.34, 7.5 30 M7.5 30 C1.03 29.09, 1.89 28.29, 0 22.5 M7.5 30 C1.53 31.23, 2.11 27.24, 0 22.5 M0 22.5 C-0.26 18.3, 1.04 11.59, 0 7.5 M0 22.5 C-0.51 16.71, 0.5 10.12, 0 7.5 M0 7.5 C-0.08 0.87, 1.1 -1.27, 7.5 0 M0 7.5 C0.19 3.52, 1.66 -1.14, 7.5 0" stroke="#1971c2" stroke-width="2" fill="none"></path></g><g transform="translate(116.83660888671875 296) rotate(0 28.47198486328125 10)"><text x="28.47198486328125" y="0" font-family="Inter, ui-sans-serif, system-ui, -apple-system, BlinkMacSystemFont" font-size="16px" fill="#1971c2" text-anchor="middle" style="white-space: pre;" direction="ltr" dominant-baseline="text-before-edge">Room 4</text></g><g stroke-linecap="round" transform="translate(20.875 291.8984375) rotate(0 38 15)"><path d="M7.5 0 M7.5 0 C19.45 -0.51, 33.6 -1.55, 68.5 0 M7.5 0 C29.59 -0.39, 49.72 0.11, 68.5 0 M68.5 0 C75.09 0.65, 76.07 2.97, 76 7.5 M68.5 0 C73.48 1.79, 75.89 4.46, 76 7.5 M76 7.5 C76.25 11.96, 76.76 17.12, 76 22.5 M76 7.5 C76.78 12.58, 76.73 16.81, 76 22.5 M76 22.5 C76.72 26.39, 73.28 29.52, 68.5 30 M76 22.5 C77.09 27.44, 73.41 28.02, 68.5 30 M68.5 30 C55.45 30.83, 42.13 31.38, 7.5 30 M68.5 30 C55.7 30.53, 43.37 29.85, 7.5 30 M7.5 30 C4.12 30.1, -1.03 27.64, 0 22.5 M7.5 30 C0.57 31.27, 2.13 25.27, 0 22.5 M0 22.5 C0.52 17.67, -1.5 10.32, 0 7.5 M0 22.5 C-0.29 16.67, -0.68 10.73, 0 7.5 M0 7.5 C-1.54 1.79, 1.23 0.37, 7.5 0 M0 7.5 C-0.9 3.65, 4.77 2.06, 7.5 0" stroke="#1971c2" stroke-width="2" fill="none"></path></g><g transform="translate(33.355010986328125 296.8984375) rotate(0 25.519989013671875 10)"><text x="25.519989013671875" y="0" font-family="Inter, ui-sans-serif, system-ui, -apple-system, BlinkMacSystemFont" font-size="16px" fill="#1971c2" text-anchor="middle" style="white-space: pre;" direction="ltr" dominant-baseline="text-before-edge">Room 1</text></g><g stroke-linecap="round"><g transform="translate(306.69140625 94.15234375) rotate(0 0.07853828081397296 11.16007107018028)"><path d="M0.27 -0.81 C0.52 2.84, 1.13 18.11, 1.21 22.1 M-1.05 1.38 C-0.95 5.12, -0.59 19.27, 0.12 23.13" stroke="#e03131" stroke-width="2" fill="none"></path></g></g><mask></mask><g stroke-linecap="round"><g transform="translate(106.62849296918603 92.89461642981973) rotate(0 -0.9576945540402164 12.315556925097482)"><path d="M-0.9 0.87 C-1.27 4.84, -1.6 19.23, -1.89 23.02 M0.82 0.28 C0.29 4.49, -1.98 20.22, -2.74 24.35" stroke="#e03131" stroke-width="2" fill="none"></path></g></g><mask></mask><g stroke-linecap="round"><g transform="translate(499.26628830404013 95.5594430749025) rotate(0 0.7876970538450223 10.478392403949982)"><path d="M0.28 0.35 C0.71 4.01, 2.09 17.84, 2.61 21.47 M-1.04 -0.52 C-0.76 2.83, 1.01 16.16, 1.71 19.64" stroke="#e03131" stroke-width="2" fill="none"></path></g></g><mask></mask><g stroke-linecap="round"><g transform="translate(90.515625 368.046875) rotate(0 0.13537039752836222 -9.894415375320243)"><path d="M0.69 -0.69 C0.76 -3.96, 0.55 -16.15, 0.56 -19.4 M-0.4 1.56 C-0.5 -2.1, -0.38 -17.9, -0.27 -21.35" stroke="#2f9e44" stroke-width="2" fill="none"></path></g></g><mask></mask><g stroke-linecap="round"><g transform="translate(309.2200983524717 366.54675912532025) rotate(0 0.33643564081256727 -10.436787264794113)"><path d="M0.83 -0.28 C0.95 -3.74, 0.72 -17.38, 0.73 -20.6 M-0.19 -1.47 C-0.2 -4.81, -0.12 -16.73, -0.02 -19.51" stroke="#2f9e44" stroke-width="2" fill="none"></path></g></g><mask></mask><g stroke-linecap="round"><g transform="translate(508.5990046024716 366.09754037532025) rotate(0 0.14730498391202218 -9.87018813998904)"><path d="M-0.01 1.06 C-0.25 -2.15, -0.71 -15.54, -0.5 -19.04 M-1.47 0.57 C-1.42 -3.01, 1.35 -17.58, 1.77 -20.8" stroke="#2f9e44" stroke-width="2" fill="none"></path></g></g><mask></mask><g transform="translate(25.90234375 133.88671875) rotate(0 60.71995544433594 10)"><text x="0" y="0" font-family="Inter, ui-sans-serif, system-ui, -apple-system, BlinkMacSystemFont" font-size="16px" fill="#1971c2" text-anchor="start" style="white-space: pre;" direction="ltr" dominant-baseline="text-before-edge">node-1.mygame.io</text></g><g transform="translate(228.3422622680664 132.5546875) rotate(0 64.24795532226562 10)"><text x="0" y="0" font-family="Inter, ui-sans-serif, system-ui, -apple-system, BlinkMacSystemFont" font-size="16px" fill="#1971c2" text-anchor="start" style="white-space: pre;" direction="ltr" dominant-baseline="text-before-edge">node-2.mygame.io</text></g><g transform="translate(428.39320373535156 131.77734375) rotate(0 63.99995422363281 10)"><text x="0" y="0" font-family="Inter, ui-sans-serif, system-ui, -apple-system, BlinkMacSystemFont" font-size="16px" fill="#1971c2" text-anchor="start" style="white-space: pre;" direction="ltr" dominant-baseline="text-before-edge">node-3.mygame.io</text></g><g transform="translate(28.230545043945312 386.1953125) rotate(0 72.43994140625 10)"><text x="0" y="0" font-family="Inter, ui-sans-serif, system-ui, -apple-system, BlinkMacSystemFont" font-size="16px" fill="#1971c2" text-anchor="start" style="white-space: pre;" direction="ltr" dominant-baseline="text-before-edge">all-nodes.mygame.io</text></g><g mask="url(#mask-9bsYMLq4bf5N23lBj_CH-)" stroke-linecap="round"><g transform="translate(294.1422604700165 722.7078185269086) rotate(0 -0.5229885370327452 -58.18074661732359)"><path d="M0.46 -0.95 C0.62 -10.47, 0.25 -37.6, 0 -57.03 C-0.25 -76.46, -0.77 -107.44, -1.05 -117.53 M-0.76 1.17 C-0.72 -8.19, -1.11 -36.1, -1.24 -55.7 C-1.37 -75.31, -1.5 -106.28, -1.54 -116.45" stroke="#1e1e1e" stroke-width="2" fill="none"></path></g><g transform="translate(294.1422604700165 722.7078185269086) rotate(0 -0.5229885370327452 -58.18074661732359)"><path d="M-2.39 -116.09 L3.26 -102.96 L-6.19 -102.03 L-0.65 -115.38" stroke="none" stroke-width="0" fill="#1e1e1e" fill-rule="evenodd"></path><path d="M-2.73 -117.16 C-0.62 -112.82, 0.74 -110.62, 4.22 -101.99 M-1.2 -115.84 C0.31 -111.47, 2.31 -107.38, 4.55 -102.6 M3.88 -103.03 C2.27 -101.85, -0.61 -102.71, -7.48 -102.25 M4.4 -102.9 C1.53 -102.32, -2.84 -102.79, -7.77 -102.79 M-9.05 -101.38 C-5.7 -105.99, -3.74 -111.6, -1.46 -115.37 M-8.5 -103.01 C-6.45 -104.95, -4.89 -108.27, -1.59 -115.82 M-1.54 -116.45 C-1.54 -116.45, -1.54 -116.45, -1.54 -116.45 M-1.54 -116.45 C-1.54 -116.45, -1.54 -116.45, -1.54 -116.45" stroke="#1e1e1e" stroke-width="2" fill="none"></path></g></g><mask id="mask-9bsYMLq4bf5N23lBj_CH-"><rect x="0" y="0" fill="#fff" width="396.2750729700165" height="939.7945433038171"></rect><rect x="215.01953125" y="656.4742187499999" fill="#000" width="159.375" height="19.2" opacity="1"></rect></mask><g transform="translate(215.01953125 656.47421875) rotate(0 78.59974068298374 8.052853159584942)"><text x="79.6875" y="0" font-family="Cascadia, Segoe UI Emoji" font-size="16px" fill="#1e1e1e" text-anchor="middle" style="white-space: pre;" direction="ltr" dominant-baseline="text-before-edge">join Or Create ()</text></g><g mask="url(#mask-ElBF1nw2_rQ8Q1VqPIqGl)" stroke-linecap="round"><g transform="translate(298.91015625 435.47265625) rotate(0 -0.6843606678627907 45.15486039141953)"><path d="M0.79 -0.81 C1.08 6.89, 1.24 31.73, 0.76 46.93 C0.28 62.12, -1.34 82.89, -2.1 90.34 M-0.25 1.38 C0.07 8.67, 0.78 30.2, 0.42 45.15 C0.05 60.11, -1.71 83.16, -2.44 91.12" stroke="#1e1e1e" stroke-width="2" fill="none"></path></g><g transform="translate(298.91015625 435.47265625) rotate(0 -0.6843606678627907 45.15486039141953)"><path d="M-3.53 91.84 L-6.62 77.91 L5.64 76.64 L-4.22 89.16" stroke="none" stroke-width="0" fill="#1e1e1e" fill-rule="evenodd"></path><path d="M-3.45 92.56 C-2.82 89.1, -6.08 83.95, -7.3 76.04 M-2.31 90.65 C-4.85 86.95, -5.94 82.45, -7 77.5 M-8.69 76.11 C-4.66 78.5, -2.49 78.47, 4.18 76.98 M-7.36 77.43 C-4.41 77.81, -0.43 77.42, 5.08 77.95 M6.22 78.25 C3.49 82.5, 0.53 84.72, -3.26 90.49 M4.68 77.45 C2.55 83.37, -0.8 86.97, -2.02 91.39 M-2.44 91.12 C-2.44 91.12, -2.44 91.12, -2.44 91.12 M-2.44 91.12 C-2.44 91.12, -2.44 91.12, -2.44 91.12" stroke="#1e1e1e" stroke-width="2" fill="none"></path></g></g><mask id="mask-ElBF1nw2_rQ8Q1VqPIqGl"><rect x="0" y="0" fill="#fff" width="401.8206549446745" height="626.8439415988757"></rect><rect x="228.2109375" y="462.53046874999995" fill="#000" width="140.625" height="38.4" opacity="1"></rect></mask><g transform="translate(228.2109375 462.53046875) rotate(0 70.01485808213721 18.09704789141952)"><text x="70.3125" y="0" font-family="Cascadia, Segoe UI Emoji" font-size="16px" fill="#1e1e1e" text-anchor="middle" style="white-space: pre;" direction="ltr" dominant-baseline="text-before-edge">HTTP Response:</text><text x="70.3125" y="19.2" font-family="Cascadia, Segoe UI Emoji" font-size="16px" fill="#1e1e1e" text-anchor="middle" style="white-space: pre;" direction="ltr" dominant-baseline="text-before-edge">"Room 3", at #3</text></g><g mask="url(#mask-Zd2V1puNa16JhCyoeHU9q)" stroke-linecap="round"><g transform="translate(393.92564163780594 558.3636816435242) rotate(0 54.87056763505922 -118.77720537676147)"><path d="M0.8 -1.04 C16.82 -10.5, 78.99 -17.12, 96.94 -56.38 C114.9 -95.65, 106.89 -206.55, 108.52 -236.63 M-0.24 1.04 C16.06 -8.34, 80.93 -15.36, 99.02 -55.3 C117.11 -95.24, 107.05 -208.55, 108.3 -238.59" stroke="#1e1e1e" stroke-width="2" fill="none"></path></g><g transform="translate(393.92564163780594 558.3636816435242) rotate(0 54.87056763505922 -118.77720537676147)"><path d="M106.81 -240.5 L115.87 -223.91 L101.97 -225.27 L107.01 -236.9" stroke="none" stroke-width="0" fill="#1e1e1e" fill-rule="evenodd"></path><path d="M107.01 -240.09 C109.7 -232.37, 114.12 -229.66, 115.49 -224.63 M107.85 -238.16 C109.92 -235.21, 111.54 -231.59, 115.54 -225.7 M114.86 -225.41 C111.2 -224.22, 108.95 -223.98, 102.66 -225.4 M115.06 -225.11 C112.2 -225.06, 108.87 -224.86, 102.73 -224.28 M102.63 -224.77 C103.65 -228.51, 104.33 -230.61, 107.16 -239.97 M101.72 -225.35 C104.33 -229.56, 106.79 -234.57, 108.65 -238.91 M108.3 -238.59 C108.3 -238.59, 108.3 -238.59, 108.3 -238.59 M108.3 -238.59 C108.3 -238.59, 108.3 -238.59, 108.3 -238.59" stroke="#1e1e1e" stroke-width="2" fill="none"></path></g></g><mask id="mask-Zd2V1puNa16JhCyoeHU9q"><rect x="0" y="0" fill="#fff" width="601.40625" height="895.7234570370483"></rect><rect x="440.50390625" y="483.64765624999995" fill="#000" width="103.125" height="38.4" opacity="1"></rect></mask><g transform="translate(440.50390625 483.64765625) rotate(0 8.292303022865156 -44.061179983237324)"><text x="51.5625" y="0" font-family="Cascadia, Segoe UI Emoji" font-size="16px" fill="#1e1e1e" text-anchor="middle" style="white-space: pre;" direction="ltr" dominant-baseline="text-before-edge">Connect w/ </text><text x="51.5625" y="19.2" font-family="Cascadia, Segoe UI Emoji" font-size="16px" fill="#1e1e1e" text-anchor="middle" style="white-space: pre;" direction="ltr" dominant-baseline="text-before-edge">WebSocket</text></g><g stroke-linecap="round" transform="translate(178.5 527.3515625) rotate(0 114.85546875 38.451171875)"><path d="M143.75 9.75 M143.75 9.75 C161.05 15.64, 181.8 23.69, 200.96 29.25 M143.75 9.75 C161.22 15.35, 179.06 23.02, 200.96 29.25 M200.96 29.25 C229.64 38.66, 228.92 39.23, 200.96 48.75 M200.96 29.25 C230.98 39.43, 230.51 37.31, 200.96 48.75 M200.96 48.75 C178.61 54.49, 155.38 63.95, 143.75 67.15 M200.96 48.75 C179.87 56.18, 158.84 63.26, 143.75 67.15 M143.75 67.15 C115.44 75.23, 113.72 76.93, 86.25 67.15 M143.75 67.15 C113.92 77.58, 113.87 76.43, 86.25 67.15 M86.25 67.15 C74.05 60.52, 57.71 56.16, 28.75 48.75 M86.25 67.15 C67.39 60.19, 47.6 55.06, 28.75 48.75 M28.75 48.75 C1.9 40.11, 0.91 37.52, 28.75 29.25 M28.75 48.75 C-0.65 40.51, -2.21 38.47, 28.75 29.25 M28.75 29.25 C41.65 24.8, 53.13 21.85, 86.25 9.75 M28.75 29.25 C39.67 24.67, 51.8 21.23, 86.25 9.75 M86.25 9.75 C114.53 -0.19, 116.18 -1.57, 143.75 9.75 M86.25 9.75 C115.74 -0.83, 112.94 0.3, 143.75 9.75" stroke="#1e1e1e" stroke-width="2" fill="none"></path></g><g transform="translate(246.552734375 555.9771484375) rotate(0 46.875 9.599999999999994)"><text x="46.875" y="0" font-family="Cascadia, Segoe UI Emoji" font-size="16px" fill="#1e1e1e" text-anchor="middle" style="white-space: pre;" direction="ltr" dominant-baseline="text-before-edge">Match-make</text></g><g mask="url(#mask-lydMqNnKlWh5QrlE_q9-6)" stroke-linecap="round"><g transform="translate(194.3828125 560.12890625) rotate(0 -45.112864646988896 -58.867398592601546)"><path d="M0.68 0.93 C-13.85 -7.21, -74.54 -30.37, -86.74 -50.01 C-98.93 -69.65, -74.55 -105.63, -72.48 -116.9 M-0.42 0.38 C-15.13 -7.51, -75.59 -28.91, -87.63 -48.75 C-99.66 -68.59, -74.84 -107.4, -72.63 -118.67" stroke="#1e1e1e" stroke-width="2" fill="none"></path></g><g transform="translate(194.3828125 560.12890625) rotate(0 -45.112864646988896 -58.867398592601546)"><path d="M-74.35 -116.83 L-73.58 -105.45 L-83.35 -106.4 L-73.45 -119.63" stroke="none" stroke-width="0" fill="#1e1e1e" fill-rule="evenodd"></path><path d="M-71.46 -118.53 C-73.14 -112.2, -70.82 -109.45, -71.31 -103.42 M-72.87 -118.61 C-72.92 -114.01, -71.43 -109.82, -71.86 -104.18 M-71.22 -104.46 C-73.71 -105.44, -76.04 -106.65, -84.34 -108.62 M-72.06 -103.24 C-74.72 -104.77, -77.94 -105.68, -83.61 -108.4 M-82.27 -108.77 C-80.86 -111.48, -76.49 -113.57, -73.32 -118.85 M-83.33 -108.61 C-79.93 -112.52, -76.52 -115.71, -72.19 -119.04 M-72.63 -118.67 C-72.63 -118.67, -72.63 -118.67, -72.63 -118.67 M-72.63 -118.67 C-72.63 -118.67, -72.63 -118.67, -72.63 -118.67" stroke="#1e1e1e" stroke-width="2" fill="none"></path></g></g><mask id="mask-lydMqNnKlWh5QrlE_q9-6"><rect x="0" y="0" fill="#fff" width="381.2265625" height="778.12109375"></rect><rect x="27.8515625" y="491.44843749999995" fill="#000" width="159.375" height="38.4" opacity="1"></rect></mask><g transform="translate(27.8515625 491.4484375) rotate(0 121.4183853530111 9.813070157398442)"><text x="79.6875" y="0" font-family="Cascadia, Segoe UI Emoji" font-size="16px" fill="#1e1e1e" text-anchor="middle" style="white-space: pre;" direction="ltr" dominant-baseline="text-before-edge">Seat reservation </text><text x="79.6875" y="19.2" font-family="Cascadia, Segoe UI Emoji" font-size="16px" fill="#1e1e1e" text-anchor="middle" style="white-space: pre;" direction="ltr" dominant-baseline="text-before-edge">HTTP request</text></g></svg>
